/* XPM */
static const char *wrs_48x48_xpm[] = {
/* columns rows colors chars-per-pixel */
/* "X c #008000", */
"48 48 4 1",
"X c none",
"  c black",
". c red",
"o c green",
/* pixels */
"XXXXXXXXXXXXXXXXXXXXXXXXXXXXXXXXXXXXXXXXXXXXXXXX",
"XXXXXXXXXXXXXXXXXXXXXXXXXXXXXXXXXXXXXXXXXXXXXXXX",
"XXXXXXXXXXXXXXXXXXXXXXXXXXXXXXXXXXXXXXXXXXXXXXXX",
"XXXXXXXXXXXXXXXXXXXXXXXXXXXXXXXXXXXXXXXXXXXXXXXX",
"XXXXXXXXXXXXXXXXXXXXXXXXXXXXXXXXXXXXXXXXXXXXXXXX",
"XXXXXXXXXXXXXXXXXXXXXXXXXXXXXXXXXXXXXXXXXXXXXXXX",
"XXXXXXXXXXXXXXXXXXXXXXXXXXXXXXXXXXXXXXXXXXXXXXXX",
"XXXXXXXXXXXXXXXXXXXXXXXXXXXXXXXXXXXXXXXXXXXXXXXX",
"XXXXXXXXXXXXXXXXXXXooXXXXXXXXXXXXXXXXXXXXXXXXXXX",
"XXXXXXXXXXXXXXXXXXooooXXXXXXXXXXXXXXXXXXXXXXXXXX",
"XXXXXXXXXXXXXXXXXXoooooXXXXXXXXXXXXXXXXXXXXXXXXX",
"XXXXXXXXXXXXXXXXXXoooXooXXXXXXXXXXXXXXXXXXXXXXXX",
"XXXXXXXXXXXXXXXXXXooXXoooooXXXXXXXXXXXXXXXXXXXXX",
"XXXXXXXXXXXXXXXXXoooXXXXXoooXXXXXXXXXXXXXXXXXXXX",
"XXXXXXXXXXXXXXXXXooXXX  ooooo  XXXXXXXXXXXXXXXXX",
"XXXXXXXXXXXXXXXXoooXXX .ooooo.  XXXXXXXXXXXXXXXX",
"XXXXXXXXXXXXXXXXooXXXX ........ XXXXXXXXXXXXXXXX",
"XXXXXXXXXXXXXXXoooXXXX ........ XXXXXXXXXXXXXXXX",
"XXXXXXXXXXXXXXoooXXXXX ........ XXXXXXXXXXXXXXXX",
"XXXXXXXXXXXXXoooXXXXXX ........ XXXXXXXXXXXXXXXX",
"XXXXXXXXXXXXXoooXXXXXX ........ XXXXXXXXXXXXXXXX",
"XXXXXXXXXXXXoooXXXXXXX ........ XXXXXXXXXXXXXXXX",
"XXXXXXXXXXXXoooXXXXXXX ........ XXXXXXXXXXXXXXXX",
"XXXXXXXXXXXXXooXXXXXXX .......  XXXXXXXXXXXXXXXX",
"XXXXXXXXXXXXXooXXXXXXX  ...... XXXXXXXXXXXXXXXXX",
"XXXXXXXXXXXXoooXXXXXXXX ...... XXXXXXXXXXXXXXXXX",
"XXXXXXXXXXXXoooXXXXXXXX ...... XXXXXXXXXXXXXXXXX",
"XXXXXXXXXXXXooXXXXXXXXX ...... XXXXXXXXXXXXXXXXX",
"XXXXXXXXXXXXooXXXXXXXXXX ..... XXXXXXXXXXXXXXXXX",
"XXXXXXXXXXXoooXXXXXXXXXX ..... XXXXXXXXXXXXXXXXX",
"XXXXXXXXXXXoooXXXXXXXXXXX ....  XXXXXXXXXXXXXXXX",
"XXXXXXXXXXXooXXXXXXXXXXXX .....  XXXXXXXXXXXXXXX",
"XXXXXXXXXXXooXXXXXXXXXXXX ......  XXXXXXXXXXXXXX",
"XXXXXXXXXXXooXXXXXXXXXXXX  ...... XXXXXXXXXXXXXX",
"XXXXXXXXXXXooXXXXXXXXXXXXX  .....  XXXXXXXXXXXXX",
"XXXXXXXXXXXoooXXXXXXXXXXXXX ...... XXXXXXXXXXXXX",
"XXXXXXXXXXXXooXXXXXXXXXXXXX   .... XXXXXXXXXXXXX",
"XXXXXXXXXXXXooXXXXXXXXXXXXXXXX     XXXXXXXXXXXXX",
"XXXXXXXXXXXXoooXXXXXXXXXXXXXXXXXXXXXXXXXXXXXXXXX",
"XXXXXXXXXXXoooXXXXXXXXXXXXXXXXXXXXXXXXXXXXXXXXXX",
"XXXXXXXXXXXoooXXXXXXXXXXXXXXXXXXXXXXXXXXXXXXXXXX",
"XXXXXXXXXXXXoooXXXXXXXXXXXXXXXXXXXXXXXXXXXXXXXXX",
"XXXXXXXXXXXXXXXXXXXXXXXXXXXXXXXXXXXXXXXXXXXXXXXX",
"XXXXXXXXXXXXXXXXXXXXXXXXXXXXXXXXXXXXXXXXXXXXXXXX",
"XXXXXXXXXXXXXXXXXXXXXXXXXXXXXXXXXXXXXXXXXXXXXXXX",
"XXXXXXXXXXXXXXXXXXXXXXXXXXXXXXXXXXXXXXXXXXXXXXXX",
"XXXXXXXXXXXXXXXXXXXXXXXXXXXXXXXXXXXXXXXXXXXXXXXX",
"XXXXXXXXXXXXXXXXXXXXXXXXXXXXXXXXXXXXXXXXXXXXXXXX"
};
