/* XPM */
static const char *wrs_32x32_xpm[] = {
/* columns rows colors chars-per-pixel */
/* "X c #008000", */
"32 32 4 1",
"X c none",
"  c black",
". c red",
"o c green",
/* pixels */
"XXXXXXXXXXXooXXXXXXXXXXXXXXXXXXX",
"XXXXXXXXXXooooXXXXXXXXXXXXXXXXXX",
"XXXXXXXXXXoooooXXXXXXXXXXXXXXXXX",
"XXXXXXXXXXoooXooXXXXXXXXXXXXXXXX",
"XXXXXXXXXXooXXoooooXXXXXXXXXXXXX",
"XXXXXXXXXoooXXXXXoooXXXXXXXXXXXX",
"XXXXXXXXXooXXX  ooooo  XXXXXXXXX",
"XXXXXXXXoooXXX .ooooo.  XXXXXXXX",
"XXXXXXXXooXXXX ........ XXXXXXXX",
"XXXXXXXoooXXXX ........ XXXXXXXX",
"XXXXXXoooXXXXX ........ XXXXXXXX",
"XXXXXoooXXXXXX ........ XXXXXXXX",
"XXXXXoooXXXXXX ........ XXXXXXXX",
"XXXXoooXXXXXXX ........ XXXXXXXX",
"XXXXoooXXXXXXX ........ XXXXXXXX",
"XXXXXooXXXXXXX .......  XXXXXXXX",
"XXXXXooXXXXXXX  ...... XXXXXXXXX",
"XXXXoooXXXXXXXX ...... XXXXXXXXX",
"XXXXoooXXXXXXXX ...... XXXXXXXXX",
"XXXXooXXXXXXXXX ...... XXXXXXXXX",
"XXXXooXXXXXXXXXX ..... XXXXXXXXX",
"XXXoooXXXXXXXXXX ..... XXXXXXXXX",
"XXXoooXXXXXXXXXXX ....  XXXXXXXX",
"XXXooXXXXXXXXXXXX .....  XXXXXXX",
"XXXooXXXXXXXXXXXX ......  XXXXXX",
"XXXooXXXXXXXXXXXX  ...... XXXXXX",
"XXXooXXXXXXXXXXXXX  .....  XXXXX",
"XXXoooXXXXXXXXXXXXX ...... XXXXX",
"XXXXooXXXXXXXXXXXXX   .... XXXXX",
"XXXXooXXXXXXXXXXXXXXXX     XXXXX",
"XXXooooXXXXXXXXXXXXXXXXXXXXXXXXX",
"XXXooooXXXXXXXXXXXXXXXXXXXXXXXXX"
};
