/* XPM */
static const char *xic_32x32_xpm[] = {
/* columns rows colors chars-per-pixel */
"32 32 5 1",
"  c red",
". c #008000",
"X c green",
"o c yellow",
"O c navy",
/* pixels */
"OOOOOOOOOOOOOOOOOOOOOOOOOOOOOOOO",
"OOOOOOOOOOOOOOOOOOOOOOOOOOOOOOOO",
"OOoooOOoooOOoooOOoooOOoooOOoooOO",
"OOoooOOoooOOoooOOoooOOoooOOoooOO",
"OOoooOOoooOOoooOOoooOOoooOOoooOO",
"OOOOOOOOOOOOOOOOOOOOOOOOOOOOOOOO",
"OOOOOOXXXX...XXXX.........OOOOOO",
"OOoooOX  X...X  X.........OoooOO",
"OOoooOX  X...X  X.........OoooOO",
"OOoooOXXXX...XXXX.........OoooOO",
"OOOOOO.XX.....XX..........OOOOOO",
"OOOOOO.XXX...XXX..XXXX....OOOOOO",
"OOoooO..XX...XX...X  X....OoooOO",
"OOoooO...XX.XX....X  X....OoooOO",
"OOoooO....XXX.....XXXX....OoooOO",
"OOOOOO....XXX.............OOOOOO",
"OOOOOO....XXX....XXX..XXXXOOOOOO",
"OOoooO....XXX.....XX.XXXX.OoooOO",
"OOoooO...XX.XX....XX.XX...OoooOO",
"OOoooO..XX...XX...XX.XX...OoooOO",
"OOOOOO.XXX...XXX..XX.XX...OOOOOO",
"OOOOOO.XX.....XX..XX.XX...OOOOOO",
"OOoooOXXXX...XXXX.XX.XX...OoooOO",
"OOoooOX  X...X  X.XX..XXX.OoooOO",
"OOoooOX  X...X  X..XX.XXXXOoooOO",
"OOOOOOXXXX...XXXX.........OOOOOO",
"OOOOOOOOOOOOOOOOOOOOOOOOOOOOOOOO",
"OOoooOOoooOOoooOOoooOOoooOOoooOO",
"OOoooOOoooOOoooOOoooOOoooOOoooOO",
"OOoooOOoooOOoooOOoooOOoooOOoooOO",
"OOOOOOOOOOOOOOOOOOOOOOOOOOOOOOOO",
"OOOOOOOOOOOOOOOOOOOOOOOOOOOOOOOO"
};
