/* XPM */
static const char * arc_xpm[] = {
"24 24 2 1",
" 	c none",
".	c sienna",
"                        ",
"                        ",
"          ..            ",
"        .. .            ",
"       .  ..            ",
"      .  . .            ",
"     .  .  .            ",
"    .  .  ..            ",
"   .  .  . .            ",
"   . .  ..              ",
"    .  ..               ",
"  ..  . .               ",
"  .  .  .      .......  ",
"    .  ..      ..  . .  ",
"   .  .  .    ..  . .   ",
"   . .  .  .. .  .  .   ",
"    .  .  .  .  .  .    ",
"     ..  .  .  .  .     ",
"      . .  .  .  .      ",
"       .  .  .  .       ",
"        ..  . ..        ",
"           ..           ",
"                        ",
"                        "};
