/* XPM */
static const char * break_xpm[] = {
"24 24 3 1",
" 	c none",
".	c black",
"X	c sienna",
"                        ",
"                        ",
"           .            ",
"           .            ",
"  XXXXXXX  .  XXXXXXXX  ",
"  X X  X   .  X  X  XX  ",
"  XX  X    .    X  X X  ",
"  X  X  X  .   X  X  X  ",
"  X X  X   .  X  X  XX  ",
"  XX  X    .    X  X X  ",
"  X  X  X  .   X  X  X  ",
"  X X  X   .  X  X  XX  ",
"  XX  X    .    X  X X  ",
"  X  X  X  .   X  X  X  ",
"  X X  X   .  X  X  XX  ",
"  XX  X    .    X  X X  ",
"  X  X  X  .   X  X  X  ",
"  X X  X   .  X  X  XX  ",
"  XX  X    .    X  X X  ",
"  XXXXXXX  .  XXXXXXXX  ",
"           .            ",
"           .            ",
"                        ",
"                        "};

