/* XPM */
static const char * deck_xpm[] = {
"24 24 3 1",
" 	c none",
".	c sienna",
"X	c black",
"                        ",
"                        ",
"  XX    X               ",
"   XXX XX               ",
"     XXXX               ",
"     XXXX  ...........  ",
"    XXXXX .         ..  ",
"         ........... .  ",
"         .         . .  ",
"         .         . .  ",
"         .   XXX   . .  ",
"         .   XXX   . .  ",
"         .         . .  ",
"         .         . .  ",
"         ........... .  ",
"         .         . .  ",
"         .         . .  ",
"         .   XXX   . .  ",
"         .   XXX   . .  ",
"         .         . .  ",
"         .         ..   ",
"         ...........    ",
"                        ",
"                        "};

