/* XPM */
static const char * desel_xpm[] = {
"8 22 4 1",
" 	c none",
".	c sienna",
"X	c black",
"o	c white",
"oooooooo",
"oooooooo",
"oo....oo",
"oo....oo",
"oo....oo",
"oooooooo",
"oooooooo",
"        ",
"        ",
"        ",
" X    X ",
"  XXXX  ",
"   XX   ",
"        ",
"        ",
"        ",
" ...... ",
" .  . . ",
" . .  . ",
" ..  .. ",
" ...... ",
"        "};

