/* XPM */
static const char * donut_xpm[] = {
"24 24 2 1",
" 	c none",
".	c sienna",
"                        ",
"                        ",
"           ..           ",
"        .. .  ..        ",
"       .  .  .  .       ",
"      .  .  .  . .      ",
"     .  .  .  .  ..     ",
"    .  .  .  .  .  .    ",
"   .  .  . ..  .  . .   ",
"   . .  ..    .  .  .   ",
"    .  ..      ..  .    ",
"  ..  . .      .  .  .  ",
"  .  .  .      . .  ..  ",
"    .  ..      ..  .    ",
"   .  .  .    ..  . .   ",
"   . .  .  .. .  .  .   ",
"    .  .  .  .  .  .    ",
"     ..  .  .  .  .     ",
"      . .  .  .  .      ",
"       .  .  .  .       ",
"        ..  . ..        ",
"           ..           ",
"                        ",
"                        "};
