/* XPM */
static const char * iplot_xpm[] = {
"24 24 5 1",
" 	c none",
".	c black",
"X	c sienna",
"o	c blue",
"O	c sienna",
"                        ",
"                        ",
"  ......   ...........  ",
"  ......    X     X  .  ",
"    ..      X     X  .  ",
"    ..       oooooooo.  ",
"    ..      ooooooooo.  ",
"    ..      o        .  ",
"  ......   oX     X X.  ",
"  ......   oo        .  ",
"          oo         .  ",
"  .oooooooo          .  ",
"  .ooXoooo  X     X  .  ",
"  .                  .  ",
"  .    OOO         OO.  ",
"  .   OOOOO       OOO.  ",
"  .X XO   OOX    OX X.  ",
"  .  OO   OO     OO  .  ",
"  .  O     O     O   .  ",
"  .OO       OOOOO    .  ",
"  .O X      X OO  X  .  ",
"  ....................  ",
"                        ",
"                        "};
