/* XPM */
static const char * label_xpm[] = {
"24 24 2 1",
" 	c none",
".	c black",
"                        ",
"                        ",
"  ....................  ",
"  ....................  ",
"  ..       ..       ..  ",
"  ..       ..       ..  ",
"  .        ..        .  ",
"           ..           ",
"           ..           ",
"           ..           ",
"           ..           ",
"           ..           ",
"           ..           ",
"           ..           ",
"           ..           ",
"           ..           ",
"           ..           ",
"           ..           ",
"           ..           ",
"           ..           ",
"         . .. .         ",
"         ......         ",
"                        ",
"                        "};

