/* XPM */
static const char * layer_xpm[] = {
"8 22 4 1",
" 	c none",
".	c sienna",
"X	c blue",
"o	c white",
"oooooooo",
"oooooooo",
"oo....oo",
"oo....oo",
"oo....oo",
"oooooooo",
"oooooooo",
"        ",
"        ",
"        ",
"  XXXX  ",
" XXXXXX ",
"XXX   XX",
"XX      ",
"XX      ",
"XX      ",
"XX      ",
"XX      ",
"XXX   XX",
" XXXXXX ",
"  XXXX  ",
"        "};

