/* XPM */
static const char * lspec_xpm[] = {
"8 22 4 1",
" 	c none",
".	c sienna",
"X	c blue",
"o	c white",
"oooooooo",
"oooooooo",
"oo....oo",
"oo....oo",
"oo....oo",
"oooooooo",
"oooooooo",
"        ",
"        ",
"        ",
"  XXXX  ",
" XXXXXX ",
"XXX   XX",
"XX      ",
" XXX    ",
"  XXXX  ",
"     XXX",
"      XX",
"XX   XXX",
" XXXXXX ",
"  XXXX  ",
"        "};

