/* XPM */
static const char * lt_hl_xpm[] = {
/* columns rows colors chars-per-pixel */
"20 20 164 2",
"   c #FF000A",
".  c #FB000F",
"X  c #FF000E",
"o  c #F70114",
"O  c #F60115",
"+  c #FF0712",
"@  c #F90114",
"#  c #F0031D",
"$  c #F0041C",
"%  c #FF101C",
"&  c #D90A34",
"*  c #E70625",
"=  c #E60929",
"-  c #FF1924",
";  c #FF1E2B",
":  c #E61031",
">  c #DB2D3A",
",  c #FF222B",
"<  c #FF2632",
"1  c #FF3039",
"2  c #BA195A",
"3  c #9B1B74",
"4  c #961C78",
"5  c #AC1661",
"6  c #A0196E",
"7  c #C50F48",
"8  c #CC1A4D",
"9  c #DF345D",
"0  c #BF6776",
"q  c #FF414A",
"w  c #DE4975",
"e  c #ED566B",
"r  c #FF767D",
"t  c #D28250",
"y  c #D08D53",
"u  c #D28C52",
"i  c #D38D53",
"p  c #D39057",
"a  c #D5945D",
"s  c #DA9D6A",
"d  c #CC9774",
"f  c #D7A177",
"g  c #572AB7",
"h  c #552DBB",
"j  c #572DBC",
"k  c #6E27A2",
"l  c #3F31D1",
"z  c #1B39F3",
"x  c #1B3DF7",
"c  c #1F3EF4",
"v  c #103BFF",
"b  c #133DFF",
"n  c #123FFF",
"m  c #153EFF",
"M  c #163EFE",
"N  c #2F37E2",
"B  c #2039EF",
"V  c #1543FF",
"C  c #1940FD",
"Z  c #1C44FF",
"A  c #3041ED",
"S  c #3D4FEE",
"D  c #3D56E9",
"F  c #2144FC",
"G  c #234AFF",
"H  c #2A48F9",
"J  c #294FFF",
"K  c #3A4FF5",
"L  c #2C52FF",
"P  c #3B5DFF",
"I  c #4C4CDE",
"U  c #4A59D4",
"Y  c #6B6FCE",
"T  c #4554F3",
"R  c #4E58F0",
"E  c #4164FF",
"W  c #4969FF",
"Q  c #4C6DFF",
"!  c #5270FF",
"~  c #5775FF",
"^  c #5A7AFF",
"/  c #627DFF",
"(  c #637FFF",
")  c #831F8A",
"_  c #967892",
"`  c #9D57AB",
"'  c #8A74D4",
"]  c #A37FDB",
"[  c #778EFB",
"{  c #708AFF",
"}  c #748CFF",
"|  c #748DFF",
" . c #7991FF",
".. c #7B92FF",
"X. c #7D94FF",
"o. c #BA928C",
"O. c #C99B83",
"+. c #FF848B",
"@. c #DEAC82",
"#. c #FF9CA1",
"$. c #D2ADA3",
"%. c #FFADB1",
"&. c #E7C2A3",
"*. c #E8C4A6",
"=. c #EBCBB0",
"-. c #EBCCB3",
";. c #ECD0B8",
":. c #9D8CDF",
">. c #8C96E7",
",. c #8399FF",
"<. c #8A9FFF",
"1. c #A79FE3",
"2. c #8CA3FF",
"3. c #91A4FF",
"4. c #95A7FF",
"5. c #97AAFF",
"6. c #A8B1F6",
"7. c #A0B1FF",
"8. c #ABBBFF",
"9. c #AFBDFF",
"0. c #B0BEFF",
"q. c #C68ACE",
"w. c #D595CF",
"e. c #CA90D2",
"r. c #E290C0",
"t. c #FAA6C6",
"y. c #F3A3C8",
"u. c #ECB0C2",
"i. c #B2C0FF",
"p. c #B5C2FF",
"a. c #BBC7FF",
"s. c #D3C6D1",
"d. c #DDC7D8",
"f. c #FFCACC",
"g. c #F1DBC9",
"h. c #F2DCC9",
"j. c #FFD4D6",
"k. c #EDE1DC",
"l. c #F5E7DB",
"z. c #F4E7DE",
"x. c #D3D3ED",
"c. c #C6D0FF",
"v. c #C9D3FF",
"b. c #D3DBFF",
"n. c #D4DBFF",
"m. c #DEE4FF",
"M. c #DFE7FF",
"N. c #FFE0E1",
"B. c #F7ECE2",
"V. c #F9EFE5",
"C. c #F9F1EA",
"Z. c #FDF3EE",
"A. c #FCF4EC",
"S. c #EFECF2",
"D. c #EEEDF7",
"F. c #E5EAFF",
"G. c #EAEDFF",
"H. c #FBF6F1",
"J. c #FDFAF7",
"K. c #F7F8FC",
"L. c #FFFBFB",
"P. c #FEFCFB",
"I. c #FBFCFF",
"U. c #FFFFFF",   /* changed for highlighting */
/* pixels */
"U.U.U.U.U.U.U.U.U.U.U.U.U.U.U.U.U.U.U.U.",
"N.r r +.%.N.U.U.U.U.U.U.U.U.U.U.U.U.U.U.",
"f.%     + < r j.U.U.U.U.U.U.U.U.U.U.U.U.",
"f.-   X X X X ; #.L.U.U.U.U.U.U.U.U.U.U.",
"j.q 1 , +   X   % #.U.U.U.U.U.U.U.U.U.U.",
"Z.d.1.:.` 2 O X   - u.M.G.U.U.U.U.U.U.U.",
"=.d _ U V c ) O X   8 S ~ G.U.U.U.U.U.U.",
"A.z.k.x.p.8.6.e X X O g G v.U.U.U.U.U.U.",
"b.p.9.7.7.3.2.' = X   4 n 4.U.U.U.U.U.U.",
"..M m m n n n x 5   X 7 z ^ K.C.l.C.P.U.",
"..n m F F c N N 3 X   & l I $.s a s *.H.",
" .m ' w.e.q.w : $ X X @ * > t u i i i -.",
" .m ] t.y.r.r.9 . X X   : 0 u i i i u *.",
" .v H R T K L A 6 X X * j D O.p i i @.B.",
" .v b v v v v v B 6 $ k n Q S.g.-.g.H.U.",
"0.} { ( / ! ! W E D j x v ,.U.U.U.U.U.U.",
"J.H.H.D.m.n.v.c.p.{ n m Z a.U.U.U.U.U.U.",
"=.f o.Y L J G Z Z M m m P F.U.U.U.U.U.U.",
"V.s.>.[ } } } X.<.5.7.9.c.I.U.U.U.U.U.U.",
"U.U.U.U.U.U.U.U.U.U.U.U.U.U.U.U.U.U.U.U."
};

