/* XPM */
static const char * ltpal_xpm[] = {
"8 8 2 1",
" 	c none",
".	c blue",
"....... ",
"....... ",
"....... ",
"....... ",
"....... ",
"....... ",
"....... ",
"        "};

