/* XPM */
static const char * ltsty_xpm[] = {
"8 8 2 1",
" 	c none",
".	c blue",
"        ",
"        ",
"        ",
"....... ",
"....... ",
"        ",
"        ",
"        "};

