/* XPM */
static const char * ltvis_xpm[] = {
"24 12 4 1",
" 	c none",
".	c blue",
"X	c black",
"o	c white",
"      XX       XX       ",
"     X.X       X.X      ",
"    X. X       X .X     ",
"   X. .XXXXXXXXX. .X    ",
"  X. . . . . . . . .X   ",
" X. . . . . . . . . .X  ",
"  X. . . . . . . . .X   ",
"   X. .XXXXXXXXX. .X    ",
"    X. X       X .X     ",
"     X.X       X.X      ",
"      XX       XX       ",
"                        "};

