/* XPM */
static const char * nodmp_xpm[] = {
"24 24 3 1",
" 	c none",
".	c sienna",
"X	c black",
"                        ",
"                        ",
"        ...        ...  ",
"        ...        ...  ",
"         ...      ...   ",
"         ....    ....   ",
"         .. ..  .. ..   ",
"         ..  ....  ..   ",
"         ..   ..   ..   ",
"         ..        ..   ",
"         ..        ..   ",
"         ..        ..   ",
"      X  ..        ..   ",
"      X ....      ....  ",
"      X                 ",
"     XXX                ",
"    XXXXX               ",
"  XXXXXXXXXXX           ",
"    XXXXX               ",
"     XXX                ",
"      X                 ",
"      X                 ",
"                        ",
"                        "};

