/* XPM */
static const char * place_xpm[] = {
"24 24 3 1",
" 	c none",
".	c sienna",
"x	c black",
"                        ",
"        ..    ..        ",
"   xxxxx..xxxx..xxxxx   ",
"   x    ..    ..    x   ",
"   x                x   ",
"  ...               x   ",
"  ...               x   ",
"   x               ...  ",
"   x               ...  ",
"   x                x   ",
"   x                x   ",
"  ...               x   ",
"  ...               x   ",
"   x                x   ",
"   x                x   ",
"   x               ...  ",
"   x               ...  ",
"  ...               x   ",
"  ...               x   ",
"   x                x   ",
"   x   ..      ..   x   ",
"   xxxx..xxxxxx..xxxx   ",
"       ..      ..       ",
"                        "};

