/* XPM */
static const char * put_xpm[] = {
"24 24 3 1",
" 	c none",
".	c sienna",
"X	c black",
"                        ",
"                        ",
"                 .....  ",
"                 . . .  ",
"                 ..  .  ",
"                 .  ..  ",
"           XXXX  . . .  ",
"             XX  ..  .  ",
"            X X  .....  ",
"  .....    XX X         ",
"  . . .   XX  X         ",
"  ..  .  XX             ",
"  .  ..  X              ",
"  . . .                 ",
"  ..  .                 ",
"  .  ..                 ",
"  . . ........          ",
"  ..  .  .  ..          ",
"  .  .  .  . .          ",
"  . .  .  .  .          ",
"  ............          ",
"                        ",
"                        ",
"                        "};

