/* XPM */
static const char * rdraw_xpm[] = {
"12 12 2 1",
" 	c none",
".	c red",
"            ",
" .......... ",
" .......... ",
" .......... ",
" .......... ",
" .......... ",
" .......... ",
" .......... ",
" .......... ",
" .......... ",
" .......... ",
"            "};

