/* XPM */
static const char * run_xpm[] = {
"24 24 5 1",
"X	c none",
" 	c black",
".	c red",
"o	c green",
"+	c blue",
"XXXXXXXXXXXXXXXXXXXXXXXX",
"XXXXXXXXXXXXXXXXXXXXXXXX",
"XXXXXXXXXXXXXXXXXXXXXXXX",
"XXXXXXXXXXXXXXXXXXXXXXXX",
"ooXXXXXXXXXXXXXXX+++++XX",
"ooooXXXXXXXXXXXXX+XXX+XX",
"XXooooo    XXXXXX+XXX+XX",
"XXXXoooo..  XXXXX+XXX+XX",
"XXX ooo.... XXXXX+XXX+XX",
"XXX .o..... XX++++XXX+++",
"XXX .......  XXXXXXXXXXX",
"XXX  ....... XXXXXXXXXXX",
"XXX  ....... XXXXXXXXXXX",
"XXXX  ......  XXXXXXXXXX",
"XXXXX  ......  XXXXXXXXX",
"XXXXXX  ...... XXXXXXXXX",
"XXXXXXX   ....  XXXXXXXX",
"XXXXXXXX   .... XXXXXXXX",
"XXXXXXXXXX   ...XXXXXXXX",
"XXXXXXXXXXX     XXXXXXXX",
"XXXXXXXXXXXXXXXXXXXXXXXX",
"XXXXXXXXXXXXXXXXXXXXXXXX",
"XXXXXXXXXXXXXXXXXXXXXXXX",
"XXXXXXXXXXXXXXXXXXXXXXXX"};
