/* XPM */
static const char * sides_xpm[] = {
"24 24 3 1",
" 	c none",
".	c sienna",
"X	c black",
"                        ",
"                        ",
"  .  . .   X            ",
"    .  ..  X            ",
"   .  . .  X            ",
"  .  .  .. X            ",
"    .  . . X            ",
"   .  .  . X         X  ",
"  .  .  .. X        X   ",
"    .  .  .X       X    ",
"   .  .  ..X      X     ",
"  .  .  . .X     X      ",
"    .  . . X    X       ",
"   .  .  . X   X        ",
"  .  .  .. X  X         ",
"    .  . . X X          ",
"   .  . .  XX           ",
"  .  .  .  X            ",
"    .  .  XX            ",
"   .  .. X X            ",
"  .  .. X  X            ",
"    .. X   X            ",
"                        ",
"                        "};

