/* XPM */
static const char * spcmd_xpm[] = {
"24 24 4 1",
"X	c none",
" 	c black",
".	c red",
"o	c green",
"XXXXXXXXXXXXXXXXXXXXXXXX",
"XXXXXXXXXXXXXXXXXXXXXXXX",
"XXXXXXXXXXXXXXXXXXXXXXXX",
"XXXXXXXXXXXXXXXXXXXXXXXX",
"ooXXXXXXXXXXXXXXXXXXXXXX",
"ooooXXXXXXXXXXXXXXXXXXXX",
"XXooooo    XXXXXXXXXXXXX",
"XXXXoooo..  XXXXXX    XX",
"XXX ooo.... XXXXX XXXX X",
"XXX .o..... XXXXX XXXXXX",
"XXX .......  XXXX XXXXXX",
"XXX  ....... XXXX XXXX X",
"XXX  ....... XXXXX    XX",
"XXXX  ......  XXXXXXXXXX",
"XXXXX  ......  XXXXXXXXX",
"XXXXXX  ...... XXXXXXXXX",
"XXXXXXX   ....  XXXXXXXX",
"XXXXXXXX   .... XXXXXXXX",
"XXXXXXXXXX   ...XXXXXXXX",
"XXXXXXXXXXX     XXXXXXXX",
"XXXXXXXXXXXXXXXXXXXXXXXX",
"XXXXXXXXXXXXXXXXXXXXXXXX",
"XXXXXXXXXXXXXXXXXXXXXXXX",
"XXXXXXXXXXXXXXXXXXXXXXXX"};
