/* XPM */
static const char * style_xpm[] = {
"24 24 3 1",
" 	c none",
".	c black",
"X	c sienna",
"                        ",
"                        ",
"  XXXXXXXXXXXXXXXX      ",
"   X  X  X  X  X X      ",
"  X  X  X  X  X  X      ",
"    X  X  X  X  XX      ",
"   X  X  X  X  X X      ",
"  XXXXXXXXXXXXXXXX      ",
"                 .      ",
"  XXXXXXXXXXXXXXXXX     ",
"   X  X  X  X  X .XX    ",
"  X  X  X  X  X  .  X   ",
"    X  X  X  X  X.  X   ",
"   X  X  X  X  X .XX    ",
"  XXXXXXXXXXXXXXXXX     ",
"                 .      ",
"  XXXXXXXXXXXXXXXXXXX   ",
"   X  X  X  X  X .  X   ",
"  X  X  X  X  X  .  X   ",
"    X  X  X  X  X.  X   ",
"   X  X  X  X  X .  X   ",
"  XXXXXXXXXXXXXXXXXXX   ",
"                        ",
"                        "};

