/* XPM */
static const char * symbl_xpm[] = {
"24 24 3 1",
" 	c none",
".	c black",
"X	c sienna",
"                        ",
"                        ",
"   .............        ",
"   .            .       ",
"   .             .      ",
"  ...        X    .     ",
"  ...   X   X     .     ",
"   .    X  X      .     ",
"   .    X X        .    ",
"   .    XX         .    ",
"   .    X          ..   ",
"   . XXXX          ...  ",
"   .    X          ..   ",
"   .    XX         .    ",
"   .    X X        .    ",
"   .    X  X X     .    ",
"   .    X   XX    .     ",
"  ...   X  XXX    .     ",
"  ...         X   .     ",
"   .             .      ",
"   .            .       ",
"   .............        ",
"                        ",
"                        "};

