/* XPM */
static const char * terms_xpm[] = {
"24 24 3 1",
" 	c none",
".	c sienna",
"X	c black",
"                        ",
"                        ",
"  ....................  ",
"  .                  .  ",
"  .                  .  ",
"  .            X     .  ",
"  .            X     .  ",
"  .            X     .  ",
"  .            X     .  ",
"  .         XXXXXXX  .  ",
"  .     X      X     .  ",
"  .     X      X     .  ",
"  .     X      X     .  ",
"  .     X      X     .  ",
"  .  XXXXXXX         .  ",
"  .     X            .  ",
"  .     X            .  ",
"  .     X            .  ",
"  .     X            .  ",
"  .                  .  ",
"  .                  .  ",
"  ....................  ",
"                        ",
"                        "};

