/* XPM */
static const char * wr_xpm[] = {
/* columns rows colors chars-per-pixel */
"30 20 161 2",
"   c #0000CA",
".  c #0000CB",
"X  c #0000CC",
"o  c #0000CD",
"O  c #0000CE",
"+  c #0101CE",
"@  c #0000CF",
"#  c #0101CF",
"$  c #0303CE",
"%  c #0202CF",
"&  c #0303CF",
"*  c #0404CF",
"=  c #0000D0",
"-  c #0101D0",
";  c #0202D0",
":  c #0303D0",
">  c #0404D0",
",  c #0505D0",
"<  c #0404D1",
"1  c #0505D1",
"2  c #0707D0",
"3  c #0606D1",
"4  c #0707D1",
"5  c #0909D0",
"6  c #0808D1",
"7  c #0909D1",
"8  c #0A0AD0",
"9  c #0A0AD1",
"0  c #0909D2",
"q  c #0D0DD1",
"w  c #0E0ED1",
"e  c #0E0ED2",
"r  c #0F0FD2",
"t  c #1313D1",
"y  c #1010D2",
"u  c #1212D2",
"i  c #1313D2",
"p  c #1414D2",
"a  c #1414D3",
"s  c #1515D3",
"d  c #1616D3",
"f  c #1919D2",
"g  c #1818D3",
"h  c #1919D3",
"j  c #1A1AD3",
"k  c #1B1BD4",
"l  c #1C1CD4",
"z  c #2121D4",
"x  c #2121D5",
"c  c #2626D6",
"v  c #2828D6",
"b  c #2929D6",
"n  c #2929D7",
"m  c #2D2DD7",
"M  c #2F2FD7",
"N  c #2E2ED8",
"B  c #2F2FD8",
"V  c #3939D9",
"C  c #3A3ADA",
"Z  c #3C3CD9",
"A  c #3C3CDA",
"S  c #3F3FDB",
"D  c #4343DB",
"F  c #4545DB",
"G  c #4545DC",
"H  c #4949DC",
"J  c #4848DD",
"K  c #4949DD",
"L  c #5050DE",
"P  c #5151DE",
"I  c #5353DE",
"U  c #5858DF",
"Y  c #5A5ADF",
"T  c #5B5BE0",
"R  c #5C5CE0",
"E  c #6464E1",
"W  c #6464E2",
"Q  c #6767E2",
"!  c #6868E2",
"~  c #6B6BE2",
"^  c #6B6BE3",
"/  c #6C6CE3",
"(  c #6D6DE3",
")  c #7272E4",
"_  c #7373E4",
"`  c #7474E5",
"'  c #7676E5",
"]  c #7777E5",
"[  c #7878E5",
"{  c #7979E6",
"}  c #7B7BE6",
"|  c #7C7CE6",
" . c #7E7EE6",
".. c #8080E7",
"X. c #8585E7",
"o. c #8787E8",
"O. c #8888E9",
"+. c #8B8BE9",
"@. c #8C8CE9",
"#. c #8F8FE9",
"$. c #9090EA",
"%. c #9797EB",
"&. c #9999EB",
"*. c #A0A0ED",
"=. c #A1A1ED",
"-. c #A3A3ED",
";. c #A8A8EE",
":. c #A8A8EF",
">. c #ACACEF",
",. c #ADADEF",
"<. c #AEAEF0",
"1. c #AFAFF0",
"2. c #B1B1F0",
"3. c #B4B4F1",
"4. c #B5B5F1",
"5. c #B9B9F2",
"6. c #BABAF2",
"7. c #BCBCF2",
"8. c #C0C0F3",
"9. c #C1C1F3",
"0. c #C2C2F3",
"q. c #C4C4F3",
"w. c #C5C5F4",
"e. c #C7C7F4",
"r. c #C8C8F4",
"t. c #CDCDF5",
"y. c #CECEF5",
"u. c #D0D0F6",
"i. c #D1D1F6",
"p. c #D2D2F6",
"a. c #D3D3F6",
"s. c #D4D4F7",
"d. c #D6D6F7",
"f. c #D8D8F7",
"g. c #DBDBF8",
"h. c #DDDDF8",
"j. c #E1E1F9",
"k. c #E2E2F9",
"l. c #E3E3F9",
"z. c #E6E6FA",
"x. c #E7E7FA",
"c. c #E8E8FB",
"v. c #E9E9FB",
"b. c #ECECFB",
"n. c #EDEDFB",
"m. c #EEEEFC",
"M. c #EFEFFC",
"N. c #F0F0FC",
"B. c #F1F1FC",
"V. c #F4F4FD",
"C. c #F5F5FD",
"Z. c #F7F7FD",
"A. c #F8F8FD",
"S. c #F9F9FD",
"D. c #FAFAFE",
"F. c none",    /* changed for transparency */
"G. c #FCFCFE",
"H. c #FDFDFE",
"J. c #FEFEFE",
"K. c none",    /* changed for transparency */
"L. c #FFFFFF",
/* pixels */
"K.K.K.K.K.K.K.K.K.K.K.K.K.K.K.K.K.K.K.K.K.K.K.K.K.K.K.K.K.K.",
"F.O.T p.K.K.K.K.K.K.K.K.K.K.K.K.K.m.W D G G T ' <.v.K.K.K.K.",
"O.X X c N.K.K.K.F.K.0.r.K.F.K.F.K.' . * X X X X = q ) F.K.K.",
"W X 0 X o.K.F.K.F.K.I Z K.F.K.K.K.m X 4 = = = 4 4 4 . / K.K.",
"e.4 = X l v.K.F.K.z.s X >.K.F.K.p.= = = 0 g 0 X X = = X p.K.",
"K.R X 4 X } K.F.K.%.X = c V.K.K.@.X 0 X O.F.h.0.I X 4 X -.K.",
"K.y.4 X X u l.K.K.Z X 4 X X.K.K.J X = 4 d.K.F.K.<.X 4 X -.K.",
"F.K.W . 4 X ) K.e.X = = X q l.n.u = X N m.m.m.m.^ X 4 X :.K.",
"K.K.f.0 = = 4 v.' X 4 = = . ~ 5.X = = 0 g s g q = = = 4 d.K.",
"K.F.K.~ X 4 X T n X = = = = q B X = = X = = = = = 4 . Y K.F.",
"K.K.K.l.u = = X = = X j 4 = = X = = 4 4 = = = = X X J n.K.K.",
"K.K.F.K.} X 4 = = = = 5.C X 4 = = X T W X 4 = = / 0.F.K.K.K.",
"K.K.K.K.z.g = = = = B K.2.X = = = X -.F.x X = X ' K.F.K.K.K.",
"K.K.K.F.K.o.X = = X O.K.K.I X = = 4 g.K.7.= = = X -.K.F.K.K.",
"K.K.K.K.K.n.l X X q l.K.K.p.0 = X C K.F.K...X 4 X u h.K.F.K.",
"K.K.K.K.F.K.$.X X T K.K.F.K.} X X  .K.F.K.K.D X 4 X D K.K.K.",
"K.K.K.K.K.K.V.n X 4.K.F.K.K.m.x X 0.K.F.K.K.g.g X 4 X y.K.F.",
"K.K.K.K.K.F.K.@.j F.K.K.K.F.K.&.u F.K.K.K.F.K.>.X . j z.K.K.",
"K.K.K.K.K.K.K.v.,.K.K.K.K.K.K.n.&.K.K.K.K.K.F.K.2.} p.K.K.K.",
"K.K.K.K.K.K.K.K.K.K.K.K.K.K.K.F.K.K.K.K.K.K.K.F.K.K.K.K.K.K."
};

