/* XPM */
static const char * xor_xpm[] = {
"24 24 2 1",
" 	c none",
".	c sienna",
"                        ",
"                        ",
"         .............  ",
"         . .  .  .  ..  ",
"         ..  .  .  . .  ",
"         .  .  .  .  .  ",
"         . .  .  .  ..  ",
"         ..  .  .  . .  ",
"  ..............  .  .  ",
"  . .  . .     . .  ..  ",
"  ..  .  .     ..  . .  ",
"  .  .  ..     .  .  .  ",
"  . .  . .     . .  ..  ",
"  ..  .  .     ..  . .  ",
"  .  .  ..     .  .  .  ",
"  . .  . .............  ",
"  ..  .  .  .  .        ",
"  .  .  .  .  ..        ",
"  . .  .  .  . .        ",
"  ..  .  .  .  .        ",
"  .  .  .  .  ..        ",
"  ..............        ",
"                        ",
"                        "};

