/* XPM */
static const char *xic_48x48_xpm[] = {
/* columns rows colors chars-per-pixel */
"48 48 5 1",
"  c red",
". c #008000",
"X c green",
"o c yellow",
"O c navy",
/* pixels */
"OOOOOOOOOOOOOOOOOOOOOOOOOOOOOOOOOOOOOOOOOOOOOOOO",
"OOOOOOOOOOOOOOOOOOOOOOOOOOOOOOOOOOOOOOOOOOOOOOOO",
"OOOOOOOOOOOOOOOOOOOOOOOOOOOOOOOOOOOOOOOOOOOOOOOO",
"OOOOOOOOOOOOOOOOOOOOOOOOOOOOOOOOOOOOOOOOOOOOOOOO",
"OOOOooooOOooooOOooooOOooooOOooooOOooooOOooooOOOO",
"OOOOooooOOooooOOooooOOooooOOooooOOooooOOooooOOOO",
"OOOOooooOOooooOOooooOOooooOOooooOOooooOOooooOOOO",
"OOOOooooOOooooOOooooOOooooOOooooOOooooOOooooOOOO",
"OOOOOOOOOOOOOOOOOOOOOOOOOOOOOOOOOOOOOOOOOOOOOOOO",
"OOOOOOOOO..............................OOOOOOOOO",
"OOOOooooOXXXX..........................OooooOOOO",
"OOOOooooOX  X.....................XXXX.OooooOOOO",
"OOOOooooOX  X...........XXXXXXXXXXX  X.OooooOOOO",
"OOOOooooOXXXX..........XXXXXXXXXXXX  X.OooooOOOO",
"OOOOOOOOO.XXX.........XXXX........XXXX.OOOOOOOOO",
"OOOOOOOOO.XXX.........XXX..............OOOOOOOOO",
"OOOOooooO..XXX.......XXX...............OooooOOOO",
"OOOOooooO...XXX.....XXX................OooooOOOO",
"OOOOooooO...XXXX...XXXX...XXXX.........OooooOOOO",
"OOOOooooO....XXX...XXX....X  X.........OooooOOOO",
"OOOOOOOOO.....XXX.XXX.....X  X.........OOOOOOOOO",
"OOOOOOOOO.....XXXXXXX.....XXXX.........OOOOOOOOO",
"OOOOooooO......XXXXX...................OooooOOOO",
"OOOOooooO.......XXX....................OooooOOOO",
"OOOOooooO......XXXXX.....XXXXX...XXXXXXOooooOOOO",
"OOOOooooO.....XXXXXXX.....XXXX..XXXXXX.OooooOOOO",
"OOOOOOOOO.....XXX.XXX......XXX..XXX....OOOOOOOOO",
"OOOOOOOOO....XXX...XXX......XX..XX.....OOOOOOOOO",
"OOOOooooO...XXXX...XXXX.....XX..XX.....OooooOOOO",
"OOOOooooO...XXX.....XXX.....XX..XX.....OooooOOOO",
"OOOOooooO..XXX.......XXX....XX..XX.....OooooOOOO",
"OOOOooooO.XXX.........XXX...XX..XX.....OooooOOOO",
"OOOOOOOOO.XXX.........XXX...XX..XX.....OOOOOOOOO",
"OOOOOOOOOXXXX.........XXXX..XX..XX.....OOOOOOOOO",
"OOOOooooOX  X.........X  X..XX..XXX....OooooOOOO",
"OOOOooooOX  X.........X  X..XXX.XXXXXX.OooooOOOO",
"OOOOooooOXXXX.........XXXX...XX.XXXXXXXOooooOOOO",
"OOOOooooO..............................OooooOOOO",
"OOOOOOOOO..............................OOOOOOOOO",
"OOOOOOOOOOOOOOOOOOOOOOOOOOOOOOOOOOOOOOOOOOOOOOOO",
"OOOOooooOOooooOOooooOOooooOOooooOOooooOOooooOOOO",
"OOOOooooOOooooOOooooOOooooOOooooOOooooOOooooOOOO",
"OOOOooooOOooooOOooooOOooooOOooooOOooooOOooooOOOO",
"OOOOooooOOooooOOooooOOooooOOooooOOooooOOooooOOOO",
"OOOOOOOOOOOOOOOOOOOOOOOOOOOOOOOOOOOOOOOOOOOOOOOO",
"OOOOOOOOOOOOOOOOOOOOOOOOOOOOOOOOOOOOOOOOOOOOOOOO",
"OOOOOOOOOOOOOOOOOOOOOOOOOOOOOOOOOOOOOOOOOOOOOOOO",
"OOOOOOOOOOOOOOOOOOOOOOOOOOOOOOOOOOOOOOOOOOOOOOOO"
};
